name analog
datacolumns 19
datarows 22
range 0.0 0.010499999999999997
endheader
time	ground_force_vx	ground_force_vy	ground_force_vz	ground_force_px	ground_force_py	ground_force_pz	l_ground_force_vx	l_ground_force_vy	l_ground_force_vz	l_ground_force_px	l_ground_force_py	l_ground_force_pz	ground_torque_x	ground_torque_y	ground_torque_z	l_ground_torque_x	l_ground_torque_y	l_ground_torque_z
0.0	-0.0	-0.0	-0.0	-2.9896693229675293	36.99673461914063	-299.4664306640625	-5.692751407623291	-56.03109359741211	-413.7146606445313	-0.0	-0.0	-0.0	-0.0	-0.0	-0.0	94981.0234375	-6972.69091796875	-2067.65087890625
0.0004999999999999999	-0.0	-0.0	-0.0	-2.995239019393921	37.15980529785156	-299.6996765136719	-5.669896125793457	-55.635101318359375	-413.655029296875	-0.0	-0.0	-0.0	-0.0	-0.0	-0.0	95370.234375	-7057.83642578125	-2059.90380859375
0.0009999999999999998	-0.0	-0.0	-0.0	-3.114811658859253	36.67789459228516	-296.8747863769531	-5.365958213806152	-55.811771392822266	-414.9328308105469	-0.0	-0.0	-0.0	-0.0	-0.0	-0.0	95079.0859375	-6939.30029296875	-1943.6248779296875
0.0014999999999999996	-0.0	-0.0	-0.0	-3.278233289718628	36.974098205566406	-296.6116027832031	-4.658135414123535	-55.8851432800293	-414.324462890625	-0.0	-0.0	-0.0	-0.0	-0.0	-0.0	94867.84375	-7021.5966796875	-1735.50439453125
0.0019999999999999996	-0.0	-0.0	-0.0	-3.0406382083892822	36.64754867553711	-294.55206298828125	-4.50926685333252	-56.37042999267578	-415.0233459472656	-0.0	-0.0	-0.0	-0.0	-0.0	-0.0	95104.46875	-7051.6845703125	-1584.7088623046875
0.0024999999999999996	-0.0	-0.0	-0.0	-3.270971298217773	36.81830596923828	-294.7586364746094	-4.118022918701172	-55.959659576416016	-413.4836730957031	-0.0	-0.0	-0.0	-0.0	-0.0	-0.0	95152.2421875	-7025.59765625	-1636.182861328125
0.002999999999999999	-0.0	-0.0	-0.0	-3.4717931747436523	37.25672149658203	-296.96563720703125	-3.903274536132813	-56.24612808227539	-416.1594848632813	-0.0	-0.0	-0.0	-0.0	-0.0	-0.0	95428.53125	-6974.453125	-1524.9608154296875
0.003499999999999999	-0.0	-0.0	-0.0	-3.6650099754333496	36.40943908691406	-294.2573547363281	-4.0585246086120605	-56.68780517578125	-415.8686828613281	-0.0	-0.0	-0.0	-0.0	-0.0	-0.0	94974.1328125	-6905.55419921875	-1374.4171142578125
0.003999999999999999	-0.0	-0.0	-0.0	-3.561067819595337	36.72907257080078	-296.3179931640625	-3.6445062160491934	-56.52587890625	-418.254638671875	-0.0	-0.0	-0.0	-0.0	-0.0	-0.0	95720.5625	-6974.09912109375	-1426.0484619140625
0.004499999999999999	-0.0	-0.0	-0.0	-3.539160966873169	37.10891342163086	-293.9905090332031	-3.629815578460693	-56.70252227783203	-418.04986572265625	-0.0	-0.0	-0.0	-0.0	-0.0	-0.0	95823.4453125	-6968.46044921875	-1156.4671630859375
0.004999999999999999	-0.0	-0.0	-0.0	-3.464655637741089	37.22742462158203	-295.61163330078125	-3.282299041748047	-56.4956169128418	-419.943359375	-0.0	-0.0	-0.0	-0.0	-0.0	-0.0	96000.3828125	-7152.72412109375	-1232.909912109375
0.005499999999999999	-0.0	-0.0	-0.0	-3.2551052570343018	36.80361175537109	-295.8414001464844	-2.704923152923584	-56.71699142456055	-419.3883056640625	-0.0	-0.0	-0.0	-0.0	-0.0	-0.0	96138.7890625	-6703.2705078125	-1052.1414794921875
0.005999999999999998	-0.0	-0.0	-0.0	-2.8160433769226074	37.20603561401367	-295.55450439453125	-2.905768632888794	-57.041412353515625	-420.22857666015625	-0.0	-0.0	-0.0	-0.0	-0.0	-0.0	96460.4375	-7213.86279296875	-1020.2977905273438
0.006499999999999999	-0.0	-0.0	-0.0	-3.1613247394561768	37.220645904541016	-295.7373962402344	-2.2465360164642334	-57.04148864746094	-422.3885498046875	-0.0	-0.0	-0.0	-0.0	-0.0	-0.0	96884.890625	-7172.12109375	-950.90673828125
0.006999999999999998	-0.0	-0.0	-0.0	-2.547962188720703	36.68599319458008	-293.5491943359375	-2.239265203475952	-56.98175811767578	-421.1614379882813	-0.0	-0.0	-0.0	-0.0	-0.0	-0.0	96920.0	-7129.7431640625	-960.523193359375
0.007499999999999999	-0.0	-0.0	-0.0	-2.91548752784729	35.88018035888672	-295.908447265625	-2.306480407714844	-56.8720703125	-423.7297973632813	-0.0	-0.0	-0.0	-0.0	-0.0	-0.0	97256.5234375	-7384.41357421875	-970.1019897460938
0.007999999999999998	-0.0	-0.0	-0.0	-2.594182014465332	36.37934494018555	-295.1463623046875	-2.1964988708496094	-56.8438720703125	-423.548828125	-0.0	-0.0	-0.0	-0.0	-0.0	-0.0	97376.3203125	-7213.28369140625	-856.0772705078125
0.008499999999999999	-0.0	-0.0	-0.0	-2.284271478652954	36.27607727050781	-296.7456359863281	-2.1825013160705566	-56.20068359375	-424.7071838378906	-0.0	-0.0	-0.0	-0.0	-0.0	-0.0	97341.6328125	-7007.35107421875	-839.34423828125
0.008999999999999998	-0.0	-0.0	-0.0	-2.347524881362915	36.47535705566406	-294.7186584472656	-1.9586637020111084	-56.335243225097656	-425.00048828125	-0.0	-0.0	-0.0	-0.0	-0.0	-0.0	97248.65625	-7017.88330078125	-773.75
0.009499999999999998	-0.0	-0.0	-0.0	-2.429609537124634	36.65203475952149	-296.422607421875	-1.6037830114364624	-55.582176208496094	-425.7449035644531	-0.0	-0.0	-0.0	-0.0	-0.0	-0.0	97455.8984375	-7180.150390625	-850.525634765625
0.009999999999999998	-0.0	-0.0	-0.0	-2.6000025272369385	36.19387435913086	-294.38726806640625	-1.8837807178497317	-55.6357421875	-426.1773376464844	-0.0	-0.0	-0.0	-0.0	-0.0	-0.0	97850.0703125	-6941.20263671875	-793.709716796875
0.010499999999999997	-0.0	-0.0	-0.0	-2.4086837768554688	36.33758544921875	-295.502197265625	-1.8490763902664185	-55.81930541992188	-425.0810852050781	-0.0	-0.0	-0.0	-0.0	-0.0	-0.0	98036.8671875	-6823.13134765625	-903.0986328125
